<?xml version="1.0" encoding="UTF-8"?>
<!DOCTYPE svg PUBLIC "-//W3C//DTD SVG 1.1//EN" "http://www.w3.org/Graphics/SVG/1.1/DTD/svg11.dtd">
<svg version="1.1" xmlns="http://www.w3.org/2000/svg" xmlns:xlink="http://www.w3.org/1999/xlink" x="0" y="0" width="266" height="319.758" viewBox="0, 0, 266, 319.758">
  <defs>
    <clipPath id="Clip_1">
      <path d="M571.874,211.023 L839.822,211.023 L839.822,395.955 L571.874,395.955 z M819.751,219.023 L591.945,219.023 C584.174,219.023 577.874,225.325 577.874,233.1 L577.874,373.878 C577.874,381.653 584.174,387.955 591.945,387.955 L627.122,387.955 C634.893,387.955 641.193,381.653 641.193,373.878 L641.193,261.256 L819.751,261.256 C827.522,261.256 833.822,254.953 833.822,247.178 L833.822,233.1 C833.822,225.325 827.522,219.023 819.751,219.023 z"/>
    </clipPath>
    <filter id="Shadow_2">
      <feGaussianBlur in="SourceAlpha" stdDeviation="2.5"/>
      <feOffset dx="0" dy="2" result="offsetblur"/>
      <feFlood flood-color="#000000"/>
      <feComposite in2="offsetblur" operator="in"/>
    </filter>
    <clipPath id="Clip_3">
      <path d="M571.848,298.09 L839.848,298.09 L839.848,483.023 L571.848,483.023 z M819.777,306.09 L784.6,306.09 C776.829,306.09 770.529,312.393 770.529,320.168 L770.529,432.789 L591.919,432.789 C584.148,432.789 577.848,439.092 577.848,446.867 L577.848,460.945 C577.848,468.72 584.148,475.023 591.919,475.022 L819.777,475.023 C827.548,475.023 833.848,468.72 833.848,460.945 L833.848,320.168 C833.848,312.393 827.548,306.09 819.777,306.09 z"/>
    </clipPath>
    <filter id="Shadow_4">
      <feGaussianBlur in="SourceAlpha" stdDeviation="2.5"/>
      <feOffset dx="0" dy="2" result="offsetblur"/>
      <feFlood flood-color="#000000"/>
      <feComposite in2="offsetblur" operator="in"/>
    </filter>
    <clipPath id="Clip_5">
      <path d="M575.97,484.798 L616.341,484.798 L616.341,534.673 L575.97,534.673 z M600.283,492.798 L592.404,492.798 Q587.821,492.798 585.717,494.902 Q583.613,497.006 583.613,501.589 Q583.613,506.171 585.73,508.275 Q587.848,510.379 592.457,510.379 L600.015,510.379 Q603.954,510.379 605.522,511.933 Q607.09,513.488 607.09,517.401 Q607.09,521.287 605.522,522.854 Q603.954,524.422 600.015,524.422 L592.296,524.422 Q588.357,524.422 586.789,522.854 Q585.221,521.287 585.221,517.401 Q585.221,516.918 584.9,516.597 Q584.578,516.275 584.096,516.275 Q583.613,516.275 583.292,516.597 Q582.97,516.918 582.97,517.401 Q582.97,522.225 585.208,524.449 Q587.446,526.673 592.296,526.673 L600.015,526.673 Q604.892,526.673 607.117,524.449 Q609.341,522.225 609.341,517.401 Q609.341,512.577 607.117,510.352 Q604.892,508.128 600.015,508.128 L592.457,508.128 Q588.812,508.128 587.338,506.667 Q585.864,505.207 585.864,501.589 Q585.864,497.971 587.325,496.51 Q588.786,495.049 592.404,495.049 L600.283,495.049 Q603.901,495.049 605.361,496.497 Q606.822,497.944 606.822,501.535 Q606.822,502.017 607.144,502.339 Q607.465,502.661 607.948,502.661 Q608.43,502.661 608.752,502.339 Q609.073,502.017 609.073,501.535 Q609.073,496.979 606.969,494.889 Q604.866,492.798 600.283,492.798 z"/>
    </clipPath>
    <filter id="Shadow_6">
      <feGaussianBlur in="SourceAlpha" stdDeviation="3"/>
      <feOffset dx="0" dy="1" result="offsetblur"/>
      <feFlood flood-color="#000000"/>
      <feComposite in2="offsetblur" operator="in"/>
    </filter>
    <clipPath id="Clip_7">
      <path d="M607.701,486.513 L636.602,486.513 L636.602,534.727 L607.701,534.727 z M620.329,494.513 Q619.204,494.513 619.203,495.639 L619.203,502.017 L615.827,502.017 Q614.701,502.017 614.701,503.143 Q614.701,504.269 615.827,504.268 L619.203,504.268 L619.204,517.561 Q619.204,522.332 621.401,524.529 Q623.599,526.727 628.423,526.727 Q629.602,526.727 629.602,525.601 Q629.602,525.065 629.361,524.771 Q629.12,524.476 628.423,524.476 Q624.537,524.476 622.996,522.948 Q621.455,521.421 621.455,517.561 L621.455,504.268 L628.369,504.269 Q629.495,504.269 629.495,503.143 Q629.495,502.017 628.369,502.017 L621.455,502.017 L621.455,495.639 Q621.455,494.513 620.329,494.513 z"/>
    </clipPath>
    <filter id="Shadow_8">
      <feGaussianBlur in="SourceAlpha" stdDeviation="3"/>
      <feOffset dx="0" dy="1" result="offsetblur"/>
      <feFlood flood-color="#000000"/>
      <feComposite in2="offsetblur" operator="in"/>
    </filter>
    <clipPath id="Clip_9">
      <path d="M628.525,484.611 L646.813,484.611 L646.813,534.727 L628.525,534.727 z M638.232,492.611 L637.133,492.611 Q635.525,492.611 635.525,494.219 L635.525,495.317 Q635.525,496.979 637.133,496.979 L638.232,496.979 Q639.813,496.979 639.813,495.317 L639.813,494.219 Q639.813,492.611 638.232,492.611 z M637.695,502.017 Q636.57,502.017 636.57,503.143 L636.57,525.601 Q636.57,526.727 637.695,526.727 Q638.821,526.727 638.821,525.601 L638.821,503.143 Q638.821,502.017 637.695,502.017 z"/>
    </clipPath>
    <filter id="Shadow_10">
      <feGaussianBlur in="SourceAlpha" stdDeviation="3"/>
      <feOffset dx="0" dy="1" result="offsetblur"/>
      <feFlood flood-color="#000000"/>
      <feComposite in2="offsetblur" operator="in"/>
    </filter>
    <clipPath id="Clip_11">
      <path d="M641.469,493.964 L690.952,493.964 L690.952,534.781 L641.469,534.781 z M659.779,501.964 L657.528,501.964 Q655.008,501.964 653.414,502.781 Q651.819,503.599 650.72,505.501 L650.72,503.143 Q650.72,502.017 649.595,502.017 Q648.469,502.017 648.469,503.143 L648.469,525.655 Q648.469,526.781 649.595,526.781 Q650.72,526.781 650.72,525.655 L650.72,511.129 Q650.72,507.431 652.302,505.823 Q653.883,504.215 657.528,504.215 L659.779,504.215 Q662.646,504.215 663.866,505.823 Q665.085,507.431 665.085,511.129 L665.085,525.655 Q665.085,526.781 666.211,526.781 Q667.336,526.781 667.336,525.655 L667.336,511.129 Q667.336,507.431 668.917,505.823 Q670.499,504.215 674.143,504.215 L676.395,504.215 Q679.262,504.215 680.482,505.823 Q681.701,507.431 681.701,511.129 L681.701,525.655 Q681.701,526.781 682.827,526.781 Q683.952,526.781 683.952,525.655 L683.952,511.129 Q683.952,506.225 682.21,504.094 Q680.468,501.964 676.395,501.964 L674.143,501.964 Q671.303,501.964 669.534,502.955 Q667.765,503.947 666.693,506.225 Q665.701,503.947 664.053,502.955 Q662.405,501.964 659.779,501.964 z"/>
    </clipPath>
    <filter id="Shadow_12">
      <feGaussianBlur in="SourceAlpha" stdDeviation="3"/>
      <feOffset dx="0" dy="1" result="offsetblur"/>
      <feFlood flood-color="#000000"/>
      <feComposite in2="offsetblur" operator="in"/>
    </filter>
    <clipPath id="Clip_13">
      <path d="M684.51,494.017 L721.022,494.017 L721.022,534.727 L684.51,534.727 z M711.771,513.38 L711.771,518.151 Q711.583,520.402 710.391,521.796 Q709.198,523.189 707.148,523.833 Q705.098,524.476 702.284,524.476 L699.282,524.476 Q696.2,524.476 694.981,523.256 Q693.761,522.037 693.761,518.955 Q693.761,515.819 694.981,514.6 Q696.2,513.381 699.282,513.38 L711.771,513.38 z M704.642,502.017 L701.533,502.017 Q696.95,502.017 694.579,503.411 Q692.207,504.805 691.992,507.86 Q691.966,508.423 692.26,508.731 Q692.555,509.039 693.118,509.039 Q693.654,509.039 693.909,508.758 Q694.163,508.476 694.244,507.967 Q694.565,505.957 696.227,505.113 Q697.888,504.269 701.533,504.268 L704.642,504.269 Q708.528,504.269 710.136,505.81 Q711.744,507.351 711.771,511.129 L699.282,511.129 Q695.262,511.129 693.386,513.005 Q691.51,514.881 691.51,518.955 Q691.51,523.002 693.372,524.864 Q695.235,526.727 699.282,526.727 L702.284,526.727 Q709.305,526.727 711.771,522.439 L711.771,525.601 Q711.771,526.727 712.896,526.727 Q714.022,526.727 714.022,525.601 L714.022,511.397 Q714.022,506.493 711.784,504.255 Q709.546,502.017 704.642,502.017 z"/>
    </clipPath>
    <filter id="Shadow_14">
      <feGaussianBlur in="SourceAlpha" stdDeviation="3"/>
      <feOffset dx="0" dy="1" result="offsetblur"/>
      <feFlood flood-color="#000000"/>
      <feComposite in2="offsetblur" operator="in"/>
    </filter>
    <clipPath id="Clip_15">
      <path d="M715.651,484.798 L756.728,484.798 L756.728,534.727 L715.651,534.727 z M739.964,492.798 L733.479,492.798 Q727.824,492.798 725.238,495.358 Q722.652,497.917 722.651,503.679 L722.652,515.846 Q722.652,521.555 725.238,524.141 Q727.824,526.727 733.532,526.727 L739.964,526.727 Q744.869,526.727 747.2,524.677 Q749.532,522.627 749.72,518.097 Q749.773,517.535 749.492,517.226 Q749.21,516.918 748.648,516.918 Q747.549,516.918 747.468,518.044 Q747.308,521.662 745.606,523.069 Q743.904,524.476 739.964,524.476 L733.532,524.476 Q730.37,524.476 728.481,523.632 Q726.591,522.787 725.747,520.898 Q724.903,519.009 724.903,515.846 L724.903,503.679 Q724.903,500.49 725.734,498.6 Q726.564,496.711 728.44,495.88 Q730.316,495.049 733.479,495.049 L739.964,495.049 Q743.904,495.049 745.606,496.456 Q747.308,497.863 747.468,501.481 Q747.549,502.607 748.648,502.607 Q749.21,502.607 749.492,502.299 Q749.773,501.991 749.72,501.428 Q749.532,496.872 747.2,494.835 Q744.869,492.798 739.964,492.798 z"/>
    </clipPath>
    <filter id="Shadow_16">
      <feGaussianBlur in="SourceAlpha" stdDeviation="3"/>
      <feOffset dx="0" dy="1" result="offsetblur"/>
      <feFlood flood-color="#000000"/>
      <feComposite in2="offsetblur" operator="in"/>
    </filter>
    <clipPath id="Clip_17">
      <path d="M748.615,494.016 L785.771,494.016 L785.771,534.727 L748.615,534.727 z M769.391,504.269 Q773.33,504.269 774.925,505.863 Q776.52,507.458 776.519,511.397 L776.52,517.347 Q776.52,521.286 774.925,522.881 Q773.33,524.476 769.391,524.476 L764.996,524.476 Q761.056,524.476 759.461,522.881 Q757.867,521.286 757.867,517.401 L757.867,511.397 Q757.867,508.744 758.55,507.176 Q759.234,505.609 760.801,504.925 Q762.369,504.242 764.995,504.268 L769.391,504.268 z M769.391,502.017 L764.996,502.017 Q760.091,501.964 757.853,504.202 Q755.616,506.439 755.615,511.397 L755.616,517.401 Q755.616,522.251 757.853,524.489 Q760.091,526.727 764.995,526.727 L769.391,526.727 Q774.295,526.727 776.533,524.489 Q778.771,522.251 778.771,517.347 L778.771,511.397 Q778.771,506.493 776.533,504.255 Q774.295,502.017 769.391,502.017 z"/>
    </clipPath>
    <filter id="Shadow_18">
      <feGaussianBlur in="SourceAlpha" stdDeviation="3"/>
      <feOffset dx="0" dy="1" result="offsetblur"/>
      <feFlood flood-color="#000000"/>
      <feComposite in2="offsetblur" operator="in"/>
    </filter>
    <clipPath id="Clip_19">
      <path d="M780.883,494.017 L808.765,494.017 L808.765,534.727 L780.883,534.727 z M800.64,502.017 Q796.861,502.017 794.167,503.545 Q791.474,505.073 790.134,507.94 L790.134,503.143 Q790.134,502.017 789.008,502.017 Q787.883,502.017 787.883,503.143 L787.883,525.601 Q787.883,526.727 789.008,526.727 Q790.134,526.727 790.134,525.601 L790.134,513.273 Q790.456,508.878 793.136,506.573 Q795.816,504.269 800.64,504.269 Q801.765,504.269 801.765,503.143 Q801.765,502.017 800.64,502.017 z"/>
    </clipPath>
    <filter id="Shadow_20">
      <feGaussianBlur in="SourceAlpha" stdDeviation="3"/>
      <feOffset dx="0" dy="1" result="offsetblur"/>
      <feFlood flood-color="#000000"/>
      <feComposite in2="offsetblur" operator="in"/>
    </filter>
    <clipPath id="Clip_21">
      <path d="M798.571,494.016 L835.726,494.016 L835.726,534.727 L798.571,534.727 z M819.346,504.269 Q823.285,504.269 824.88,505.863 Q826.475,507.458 826.475,511.397 L826.475,512.952 L807.822,512.952 L807.822,511.397 Q807.822,507.404 809.416,505.81 Q811.011,504.215 814.951,504.268 L819.346,504.268 z M819.346,502.017 L814.951,502.017 Q810.046,501.964 807.808,504.202 Q805.571,506.439 805.571,511.397 L805.571,517.401 Q805.571,522.251 807.808,524.489 Q810.046,526.727 814.951,526.727 L819.346,526.727 Q823.848,526.727 826.126,525.132 Q828.404,523.538 828.672,520.134 Q828.726,519.571 828.431,519.263 Q828.136,518.955 827.6,518.955 Q827.037,518.955 826.756,519.236 Q826.475,519.518 826.421,520.081 Q826.18,522.493 824.572,523.484 Q822.964,524.476 819.346,524.476 L814.951,524.476 Q811.011,524.476 809.416,522.881 Q807.822,521.287 807.822,517.401 L807.822,515.203 L827.6,515.203 Q828.726,515.203 828.726,514.077 L828.726,511.397 Q828.726,506.493 826.488,504.255 Q824.25,502.017 819.346,502.017 z"/>
    </clipPath>
    <filter id="Shadow_22">
      <feGaussianBlur in="SourceAlpha" stdDeviation="3"/>
      <feOffset dx="0" dy="1" result="offsetblur"/>
      <feFlood flood-color="#000000"/>
      <feComposite in2="offsetblur" operator="in"/>
    </filter>
  </defs>
  <g id="Logo_LaunchScreen" transform="translate(-572.848, -214.023)">
    <g>
      <g>
        <path d="M819.751,219.023 C827.522,219.023 833.822,225.325 833.822,233.1 L833.822,247.178 C833.822,254.953 827.522,261.256 819.751,261.256 L641.193,261.256 L641.193,373.878 C641.193,381.653 634.893,387.955 627.122,387.955 L591.945,387.955 C584.174,387.955 577.874,381.653 577.874,373.878 L577.874,233.1 C577.874,225.325 584.174,219.023 591.945,219.023 L819.751,219.023 z" clip-path="url(#Clip_1)" filter="url(#Shadow_2)" fill="rgba(0,0,0,0.2)"/>
        <path d="M819.751,219.023 C827.522,219.023 833.822,225.325 833.822,233.1 L833.822,247.178 C833.822,254.953 827.522,261.256 819.751,261.256 L641.193,261.256 L641.193,373.878 C641.193,381.653 634.893,387.955 627.122,387.955 L591.945,387.955 C584.174,387.955 577.874,381.653 577.874,373.878 L577.874,233.1 C577.874,225.325 584.174,219.023 591.945,219.023 L819.751,219.023 z" fill="#FFFFFF"/>
      </g>
      <g>
        <path d="M819.777,306.09 C827.548,306.09 833.848,312.393 833.848,320.168 L833.848,460.945 C833.848,468.72 827.548,475.023 819.777,475.023 L591.919,475.022 C584.148,475.023 577.848,468.72 577.848,460.945 L577.848,446.867 C577.848,439.092 584.148,432.789 591.919,432.789 L770.529,432.789 L770.529,320.168 C770.529,312.393 776.829,306.09 784.6,306.09 L819.777,306.09 z" clip-path="url(#Clip_3)" filter="url(#Shadow_4)" fill="rgba(0,0,0,0.2)"/>
        <path d="M591.919,475.023 C584.148,475.023 577.848,468.72 577.848,460.945 L577.848,446.867 C577.848,439.092 584.148,432.789 591.919,432.789 L770.529,432.789 L770.529,320.168 C770.529,312.393 776.829,306.09 784.6,306.09 L819.777,306.09 C827.548,306.09 833.848,312.393 833.848,320.168 L833.848,460.945 C833.848,468.72 827.548,475.023 819.777,475.023 L591.919,475.023 z" fill="#FFFFFF"/>
      </g>
    </g>
    <g>
      <path d="M600.283,492.798 Q604.866,492.798 606.969,494.889 Q609.073,496.979 609.073,501.535 Q609.073,502.017 608.752,502.339 Q608.43,502.661 607.948,502.661 Q607.465,502.661 607.144,502.339 Q606.822,502.017 606.822,501.535 Q606.822,497.944 605.361,496.497 Q603.901,495.049 600.283,495.049 L592.404,495.049 Q588.786,495.049 587.325,496.51 Q585.864,497.971 585.864,501.589 Q585.864,505.207 587.338,506.667 Q588.812,508.128 592.457,508.128 L600.015,508.128 Q604.892,508.128 607.117,510.352 Q609.341,512.577 609.341,517.401 Q609.341,522.225 607.117,524.449 Q604.892,526.673 600.015,526.673 L592.296,526.673 Q587.446,526.673 585.208,524.449 Q582.97,522.225 582.97,517.401 Q582.97,516.918 583.292,516.597 Q583.613,516.275 584.096,516.275 Q584.578,516.275 584.9,516.597 Q585.221,516.918 585.221,517.401 Q585.221,521.287 586.789,522.854 Q588.357,524.422 592.296,524.422 L600.015,524.422 Q603.954,524.422 605.522,522.854 Q607.09,521.287 607.09,517.401 Q607.09,513.488 605.522,511.933 Q603.954,510.379 600.015,510.379 L592.457,510.379 Q587.848,510.379 585.73,508.275 Q583.613,506.171 583.613,501.589 Q583.613,497.006 585.717,494.902 Q587.821,492.798 592.404,492.798 L600.283,492.798 z" clip-path="url(#Clip_5)" filter="url(#Shadow_6)" fill="rgba(0,0,0,0.4)"/>
      <path d="M592.296,526.673 Q587.446,526.673 585.208,524.449 Q582.97,522.225 582.97,517.401 Q582.97,516.918 583.292,516.597 Q583.613,516.275 584.096,516.275 Q584.578,516.275 584.9,516.597 Q585.221,516.918 585.221,517.401 Q585.221,521.287 586.789,522.854 Q588.357,524.422 592.296,524.422 L600.015,524.422 Q603.954,524.422 605.522,522.854 Q607.09,521.287 607.09,517.401 Q607.09,513.488 605.522,511.933 Q603.954,510.379 600.015,510.379 L592.457,510.379 Q587.848,510.379 585.73,508.275 Q583.613,506.171 583.613,501.589 Q583.613,497.006 585.717,494.902 Q587.821,492.798 592.404,492.798 L600.283,492.798 Q604.866,492.798 606.969,494.889 Q609.073,496.979 609.073,501.535 Q609.073,502.017 608.752,502.339 Q608.43,502.661 607.948,502.661 Q607.465,502.661 607.144,502.339 Q606.822,502.017 606.822,501.535 Q606.822,497.944 605.361,496.497 Q603.901,495.049 600.283,495.049 L592.404,495.049 Q588.786,495.049 587.325,496.51 Q585.864,497.971 585.864,501.589 Q585.864,505.207 587.338,506.667 Q588.812,508.128 592.457,508.128 L600.015,508.128 Q604.892,508.128 607.117,510.352 Q609.341,512.577 609.341,517.401 Q609.341,522.225 607.117,524.449 Q604.892,526.673 600.015,526.673 z" fill="#FFFFFF"/>
    </g>
    <g>
      <path d="M620.329,494.513 Q621.455,494.513 621.455,495.639 L621.455,502.017 L628.369,502.017 Q629.495,502.017 629.495,503.143 Q629.495,504.269 628.369,504.269 L621.455,504.268 L621.455,517.561 Q621.455,521.421 622.996,522.948 Q624.537,524.476 628.423,524.476 Q629.12,524.476 629.361,524.771 Q629.602,525.065 629.602,525.601 Q629.602,526.727 628.423,526.727 Q623.599,526.727 621.401,524.529 Q619.204,522.332 619.204,517.561 L619.203,504.268 L615.827,504.268 Q614.701,504.269 614.701,503.143 Q614.701,502.017 615.827,502.017 L619.203,502.017 L619.203,495.639 Q619.204,494.513 620.329,494.513 z" clip-path="url(#Clip_7)" filter="url(#Shadow_8)" fill="rgba(0,0,0,0.4)"/>
      <path d="M628.423,526.727 Q623.599,526.727 621.401,524.529 Q619.204,522.332 619.204,517.561 L619.204,504.269 L615.827,504.269 Q614.701,504.269 614.701,503.143 Q614.701,502.017 615.827,502.017 L619.204,502.017 L619.204,495.639 Q619.204,494.513 620.329,494.513 Q621.455,494.513 621.455,495.639 L621.455,502.017 L628.369,502.017 Q629.495,502.017 629.495,503.143 Q629.495,504.269 628.369,504.269 L621.455,504.269 L621.455,517.561 Q621.455,521.421 622.996,522.948 Q624.537,524.476 628.423,524.476 Q629.12,524.476 629.361,524.771 Q629.602,525.065 629.602,525.601 Q629.602,526.727 628.423,526.727 z" fill="#FFFFFF"/>
    </g>
    <g>
      <path d="M637.695,502.017 Q638.821,502.017 638.821,503.143 L638.821,525.601 Q638.821,526.727 637.695,526.727 Q636.57,526.727 636.57,525.601 L636.57,503.143 Q636.57,502.017 637.695,502.017 z M638.232,492.611 Q639.813,492.611 639.813,494.219 L639.813,495.317 Q639.813,496.979 638.232,496.979 L637.133,496.979 Q635.525,496.979 635.525,495.317 L635.525,494.219 Q635.525,492.611 637.133,492.611 L638.232,492.611 z" clip-path="url(#Clip_9)" filter="url(#Shadow_10)" fill="rgba(0,0,0,0.4)"/>
      <path d="M637.133,496.979 Q635.525,496.979 635.525,495.317 L635.525,494.219 Q635.525,492.611 637.133,492.611 L638.232,492.611 Q639.813,492.611 639.813,494.219 L639.813,495.317 Q639.813,496.979 638.232,496.979 z M637.695,526.727 Q636.57,526.727 636.57,525.601 L636.57,503.143 Q636.57,502.017 637.695,502.017 Q638.821,502.017 638.821,503.143 L638.821,525.601 Q638.821,526.727 637.695,526.727 z" fill="#FFFFFF"/>
    </g>
    <g>
      <path d="M659.779,501.964 Q662.405,501.964 664.053,502.955 Q665.701,503.947 666.693,506.225 Q667.765,503.947 669.534,502.955 Q671.303,501.964 674.143,501.964 L676.395,501.964 Q680.468,501.964 682.21,504.094 Q683.952,506.225 683.952,511.129 L683.952,525.655 Q683.952,526.781 682.827,526.781 Q681.701,526.781 681.701,525.655 L681.701,511.129 Q681.701,507.431 680.482,505.823 Q679.262,504.215 676.395,504.215 L674.143,504.215 Q670.499,504.215 668.917,505.823 Q667.336,507.431 667.336,511.129 L667.336,525.655 Q667.336,526.781 666.211,526.781 Q665.085,526.781 665.085,525.655 L665.085,511.129 Q665.085,507.431 663.866,505.823 Q662.646,504.215 659.779,504.215 L657.528,504.215 Q653.883,504.215 652.302,505.823 Q650.72,507.431 650.72,511.129 L650.72,525.655 Q650.72,526.781 649.595,526.781 Q648.469,526.781 648.469,525.655 L648.469,503.143 Q648.469,502.017 649.595,502.017 Q650.72,502.017 650.72,503.143 L650.72,505.501 Q651.819,503.599 653.414,502.781 Q655.008,501.964 657.528,501.964 L659.779,501.964 z" clip-path="url(#Clip_11)" filter="url(#Shadow_12)" fill="rgba(0,0,0,0.4)"/>
      <path d="M676.395,501.964 Q680.468,501.964 682.21,504.094 Q683.952,506.225 683.952,511.129 L683.952,525.655 Q683.952,526.781 682.827,526.781 Q681.701,526.781 681.701,525.655 L681.701,511.129 Q681.701,507.431 680.482,505.823 Q679.262,504.215 676.395,504.215 L674.143,504.215 Q670.499,504.215 668.917,505.823 Q667.336,507.431 667.336,511.129 L667.336,525.655 Q667.336,526.781 666.211,526.781 Q665.085,526.781 665.085,525.655 L665.085,511.129 Q665.085,507.431 663.866,505.823 Q662.646,504.215 659.779,504.215 L657.528,504.215 Q653.883,504.215 652.302,505.823 Q650.72,507.431 650.72,511.129 L650.72,525.655 Q650.72,526.781 649.595,526.781 Q648.469,526.781 648.469,525.655 L648.469,503.143 Q648.469,502.017 649.595,502.017 Q650.72,502.017 650.72,503.143 L650.72,505.501 Q651.819,503.599 653.414,502.781 Q655.008,501.964 657.528,501.964 L659.779,501.964 Q662.405,501.964 664.053,502.955 Q665.701,503.947 666.693,506.225 Q667.765,503.947 669.534,502.955 Q671.303,501.964 674.143,501.964 z" fill="#FFFFFF"/>
    </g>
    <g>
      <path d="M704.642,502.017 Q709.546,502.017 711.784,504.255 Q714.022,506.493 714.022,511.397 L714.022,525.601 Q714.022,526.727 712.896,526.727 Q711.771,526.727 711.771,525.601 L711.771,522.439 Q709.305,526.727 702.284,526.727 L699.282,526.727 Q695.235,526.727 693.372,524.864 Q691.51,523.002 691.51,518.955 Q691.51,514.881 693.386,513.005 Q695.262,511.129 699.282,511.129 L711.771,511.129 Q711.744,507.351 710.136,505.81 Q708.528,504.269 704.642,504.269 L701.533,504.268 Q697.888,504.269 696.227,505.113 Q694.565,505.957 694.244,507.967 Q694.163,508.476 693.909,508.758 Q693.654,509.039 693.118,509.039 Q692.555,509.039 692.26,508.731 Q691.966,508.423 691.992,507.86 Q692.207,504.805 694.579,503.411 Q696.95,502.017 701.533,502.017 L704.642,502.017 z M711.771,513.38 L699.282,513.38 Q696.2,513.381 694.981,514.6 Q693.761,515.819 693.761,518.955 Q693.761,522.037 694.981,523.256 Q696.2,524.476 699.282,524.476 L702.284,524.476 Q705.098,524.476 707.148,523.833 Q709.198,523.189 710.391,521.796 Q711.583,520.402 711.771,518.151 L711.771,513.38 z" clip-path="url(#Clip_13)" filter="url(#Shadow_14)" fill="rgba(0,0,0,0.4)"/>
      <path d="M699.282,526.727 Q695.235,526.727 693.372,524.864 Q691.51,523.002 691.51,518.955 Q691.51,514.881 693.386,513.005 Q695.262,511.129 699.282,511.129 L711.771,511.129 Q711.744,507.351 710.136,505.81 Q708.528,504.269 704.642,504.269 L701.533,504.269 Q697.888,504.269 696.227,505.113 Q694.565,505.957 694.244,507.967 Q694.163,508.476 693.909,508.758 Q693.654,509.039 693.118,509.039 Q692.555,509.039 692.26,508.731 Q691.966,508.423 691.992,507.86 Q692.207,504.805 694.579,503.411 Q696.95,502.017 701.533,502.017 L704.642,502.017 Q709.546,502.017 711.784,504.255 Q714.022,506.493 714.022,511.397 L714.022,525.601 Q714.022,526.727 712.896,526.727 Q711.771,526.727 711.771,525.601 L711.771,522.439 Q709.305,526.727 702.284,526.727 z M699.282,524.476 L702.284,524.476 Q705.098,524.476 707.148,523.833 Q709.198,523.189 710.391,521.796 Q711.583,520.402 711.771,518.151 L711.771,513.381 L699.282,513.381 Q696.2,513.381 694.981,514.6 Q693.761,515.819 693.761,518.955 Q693.761,522.037 694.981,523.256 Q696.2,524.476 699.282,524.476 z" fill="#FFFFFF"/>
    </g>
    <g>
      <path d="M739.964,492.798 Q744.869,492.798 747.2,494.835 Q749.532,496.872 749.72,501.428 Q749.773,501.991 749.492,502.299 Q749.21,502.607 748.648,502.607 Q747.549,502.607 747.468,501.481 Q747.308,497.863 745.606,496.456 Q743.904,495.049 739.964,495.049 L733.479,495.049 Q730.316,495.049 728.44,495.88 Q726.564,496.711 725.734,498.6 Q724.903,500.49 724.903,503.679 L724.903,515.846 Q724.903,519.009 725.747,520.898 Q726.591,522.787 728.481,523.632 Q730.37,524.476 733.532,524.476 L739.964,524.476 Q743.904,524.476 745.606,523.069 Q747.308,521.662 747.468,518.044 Q747.549,516.918 748.648,516.918 Q749.21,516.918 749.492,517.226 Q749.773,517.535 749.72,518.097 Q749.532,522.627 747.2,524.677 Q744.869,526.727 739.964,526.727 L733.532,526.727 Q727.824,526.727 725.238,524.141 Q722.652,521.555 722.652,515.846 L722.651,503.679 Q722.652,497.917 725.238,495.358 Q727.824,492.798 733.479,492.798 L739.964,492.798 z" clip-path="url(#Clip_15)" filter="url(#Shadow_16)" fill="rgba(0,0,0,0.4)"/>
      <path d="M733.532,526.727 Q727.824,526.727 725.238,524.141 Q722.652,521.555 722.652,515.846 L722.652,503.679 Q722.652,497.917 725.238,495.358 Q727.824,492.798 733.479,492.798 L739.964,492.798 Q744.869,492.798 747.2,494.835 Q749.532,496.872 749.72,501.428 Q749.773,501.991 749.492,502.299 Q749.21,502.607 748.648,502.607 Q747.549,502.607 747.468,501.481 Q747.308,497.863 745.606,496.456 Q743.904,495.049 739.964,495.049 L733.479,495.049 Q730.316,495.049 728.44,495.88 Q726.564,496.711 725.734,498.6 Q724.903,500.49 724.903,503.679 L724.903,515.846 Q724.903,519.009 725.747,520.898 Q726.591,522.787 728.481,523.632 Q730.37,524.476 733.532,524.476 L739.964,524.476 Q743.904,524.476 745.606,523.069 Q747.308,521.662 747.468,518.044 Q747.549,516.918 748.648,516.918 Q749.21,516.918 749.492,517.226 Q749.773,517.535 749.72,518.097 Q749.532,522.627 747.2,524.677 Q744.869,526.727 739.964,526.727 z" fill="#FFFFFF"/>
    </g>
    <g>
      <path d="M769.391,502.017 Q774.295,502.017 776.533,504.255 Q778.771,506.493 778.771,511.397 L778.771,517.347 Q778.771,522.251 776.533,524.489 Q774.295,526.727 769.391,526.727 L764.995,526.727 Q760.091,526.727 757.853,524.489 Q755.616,522.251 755.616,517.401 L755.615,511.397 Q755.616,506.439 757.853,504.202 Q760.091,501.964 764.996,502.017 L769.391,502.017 z M769.391,504.268 L764.995,504.268 Q762.369,504.242 760.801,504.925 Q759.234,505.609 758.55,507.176 Q757.867,508.744 757.867,511.397 L757.867,517.401 Q757.867,521.286 759.461,522.881 Q761.056,524.476 764.996,524.476 L769.391,524.476 Q773.33,524.476 774.925,522.881 Q776.52,521.286 776.52,517.347 L776.519,511.397 Q776.52,507.458 774.925,505.863 Q773.33,504.269 769.391,504.269 z" clip-path="url(#Clip_17)" filter="url(#Shadow_18)" fill="rgba(0,0,0,0.4)"/>
      <path d="M764.996,526.727 Q760.091,526.727 757.853,524.489 Q755.616,522.251 755.616,517.401 L755.616,511.397 Q755.616,506.439 757.853,504.202 Q760.091,501.964 764.996,502.017 L769.391,502.017 Q774.295,502.017 776.533,504.255 Q778.771,506.493 778.771,511.397 L778.771,517.347 Q778.771,522.251 776.533,524.489 Q774.295,526.727 769.391,526.727 z M757.867,517.401 Q757.867,521.286 759.461,522.881 Q761.056,524.476 764.996,524.476 L769.391,524.476 Q773.33,524.476 774.925,522.881 Q776.52,521.286 776.52,517.347 L776.52,511.397 Q776.52,507.458 774.925,505.863 Q773.33,504.269 769.391,504.269 L764.996,504.269 Q762.369,504.242 760.801,504.925 Q759.234,505.609 758.55,507.176 Q757.867,508.744 757.867,511.397 z" fill="#FFFFFF"/>
    </g>
    <g>
      <path d="M800.64,502.017 Q801.765,502.017 801.765,503.143 Q801.765,504.269 800.64,504.269 Q795.816,504.269 793.136,506.573 Q790.456,508.878 790.134,513.273 L790.134,525.601 Q790.134,526.727 789.008,526.727 Q787.883,526.727 787.883,525.601 L787.883,503.143 Q787.883,502.017 789.008,502.017 Q790.134,502.017 790.134,503.143 L790.134,507.94 Q791.474,505.073 794.167,503.545 Q796.861,502.017 800.64,502.017 z" clip-path="url(#Clip_19)" filter="url(#Shadow_20)" fill="rgba(0,0,0,0.4)"/>
      <path d="M789.008,526.727 Q787.883,526.727 787.883,525.601 L787.883,503.143 Q787.883,502.017 789.008,502.017 Q790.134,502.017 790.134,503.143 L790.134,507.94 Q791.474,505.073 794.167,503.545 Q796.861,502.017 800.64,502.017 Q801.765,502.017 801.765,503.143 Q801.765,504.269 800.64,504.269 Q795.816,504.269 793.136,506.573 Q790.456,508.878 790.134,513.273 L790.134,525.601 Q790.134,526.727 789.008,526.727 z" fill="#FFFFFF"/>
    </g>
    <g>
      <path d="M819.346,502.017 Q824.25,502.017 826.488,504.255 Q828.726,506.493 828.726,511.397 L828.726,514.077 Q828.726,515.203 827.6,515.203 L807.822,515.203 L807.822,517.401 Q807.822,521.287 809.416,522.881 Q811.011,524.476 814.951,524.476 L819.346,524.476 Q822.964,524.476 824.572,523.484 Q826.18,522.493 826.421,520.081 Q826.475,519.518 826.756,519.236 Q827.037,518.955 827.6,518.955 Q828.136,518.955 828.431,519.263 Q828.726,519.571 828.672,520.134 Q828.404,523.538 826.126,525.132 Q823.848,526.727 819.346,526.727 L814.951,526.727 Q810.046,526.727 807.808,524.489 Q805.571,522.251 805.571,517.401 L805.571,511.397 Q805.571,506.439 807.808,504.202 Q810.046,501.964 814.951,502.017 L819.346,502.017 z M819.346,504.268 L814.951,504.268 Q811.011,504.215 809.416,505.81 Q807.822,507.404 807.822,511.397 L807.822,512.952 L826.475,512.952 L826.475,511.397 Q826.475,507.458 824.88,505.863 Q823.285,504.269 819.346,504.269 z" clip-path="url(#Clip_21)" filter="url(#Shadow_22)" fill="rgba(0,0,0,0.4)"/>
      <path d="M807.822,515.203 L807.822,517.401 Q807.822,521.287 809.416,522.881 Q811.011,524.476 814.951,524.476 L819.346,524.476 Q822.964,524.476 824.572,523.484 Q826.18,522.493 826.421,520.081 Q826.475,519.518 826.756,519.236 Q827.037,518.955 827.6,518.955 Q828.136,518.955 828.431,519.263 Q828.726,519.571 828.672,520.134 Q828.404,523.538 826.126,525.132 Q823.848,526.727 819.346,526.727 L814.951,526.727 Q810.046,526.727 807.808,524.489 Q805.571,522.251 805.571,517.401 L805.571,511.397 Q805.571,506.439 807.808,504.202 Q810.046,501.964 814.951,502.017 L819.346,502.017 Q824.25,502.017 826.488,504.255 Q828.726,506.493 828.726,511.397 L828.726,514.077 Q828.726,515.203 827.6,515.203 z M814.951,504.269 Q811.011,504.215 809.416,505.81 Q807.822,507.404 807.822,511.397 L807.822,512.952 L826.475,512.952 L826.475,511.397 Q826.475,507.458 824.88,505.863 Q823.285,504.269 819.346,504.269 z" fill="#FFFFFF"/>
    </g>
  </g>
</svg>
